<svg width="7" height="14" viewBox="0 0 7 14" fill="none" xmlns="http://www.w3.org/2000/svg">
<path d="M4 5.44444H7L6.66667 7H4V14H2.66667V7H0V5.44444H2.66667V3.98844C2.66667 2.60167 2.79067 2.09844 3.02267 1.59133C3.25001 1.09029 3.6012 0.680563 4.03067 0.415333C4.46533 0.144667 4.89667 0 6.08533 0C6.43333 0 6.73867 0.038889 7 0.116667V1.55556H6.08533C5.20267 1.55556 4.934 1.61622 4.66 1.78733C4.45733 1.91333 4.30667 2.08911 4.19867 2.32556C4.052 2.64522 4 2.95867 4 3.98844V5.44444Z" fill="#163152"/>
</svg>
